<svg width="1440" height="900" viewBox="0 0 1440 900" fill="none" xmlns="http://www.w3.org/2000/svg">
<g clip-path="url(#clip0_1_120)">
<path fill-rule="evenodd" clip-rule="evenodd" d="M1393.48 113.598C1410.55 117.036 1426.94 119.592 1440 114.678V120.384C1424.22 125.298 1405.57 121.554 1392.27 118.872C1263.46 92.952 1156.93 95.796 1066.58 127.602C1019.65 144.108 990.893 167.13 981.062 196.038C976.646 209.034 976.243 223.056 975.859 236.61C975.014 266.742 974.112 297.9 983.578 327.15C989.011 343.998 998.208 361.152 1011.69 379.584C1019.23 389.898 1028.68 401.292 1041.47 407.574C1052.64 413.082 1065.56 414.45 1078.92 415.476C1095.92 416.772 1113.14 417.6 1130.17 417.942C1139.62 418.122 1148.04 418.032 1155.61 414.99C1165.06 411.156 1172.03 402.948 1178.17 395.712L1253.24 307.26C1266.37 291.78 1281.27 274.23 1300.86 263.088C1318.21 253.188 1344.67 246.798 1366.85 258.498C1371.19 260.802 1375.1 263.664 1378.89 266.436C1382.4 269.028 1385.72 271.476 1389.37 273.492C1404.35 281.79 1422.05 281.592 1440 277.56V282.996C1412.52 288.972 1397.53 284.274 1386.45 278.136C1382.46 275.94 1378.83 273.276 1375.33 270.702C1371.55 267.93 1367.98 265.302 1364.03 263.214C1347.53 254.502 1323.92 256.266 1303.83 267.696C1285.15 278.334 1271.21 294.75 1257.73 310.626L1182.68 399.078C1176.42 406.44 1168.67 415.584 1157.89 419.94C1150.75 422.82 1143.01 423.396 1135.03 423.396C1133.38 423.396 1131.71 423.378 1130.04 423.342C1112.91 423 1095.55 422.154 1078.46 420.858C1064.49 419.778 1050.93 418.338 1038.8 412.362C1024.88 405.522 1014.89 393.498 1006.94 382.644C993.12 363.744 983.674 346.104 978.048 328.716C969.641 302.671 969.185 275.508 969.774 248.859L969.858 245.309C969.873 244.718 969.888 244.127 969.904 243.536L970 239.997C970.033 238.819 970.066 237.642 970.099 236.466C970.502 222.534 970.906 208.134 975.571 194.4C985.958 163.836 1015.91 139.662 1064.56 122.544C1155.97 90.36 1263.57 87.444 1393.48 113.598ZM1085.89 147.438C1134.39 132.516 1224.67 104.742 1257.66 167.526C1265.89 183.222 1267.55 202.806 1262.3 222.696C1258.16 238.464 1249.94 254.466 1236.48 273.06C1223.4 291.132 1207.3 309.312 1185.79 330.282C1169.01 346.644 1154.19 359.388 1136.39 368.334C1122.11 375.516 1107.4 379.188 1093.5 379.188C1086.74 379.188 1080.19 378.324 1073.97 376.578C1055.16 371.304 1037.93 357.084 1026.7 337.554C1016.41 319.644 1011.69 299.412 1008.13 280.224C1002.57 250.2 999.398 215.91 1018 189.162C1034.53 165.384 1064.68 153.954 1085.89 147.438ZM1255.93 168.318C1223.67 106.956 1134.43 134.388 1086.49 149.148C1065.54 155.592 1035.82 166.842 1019.62 190.152C1001.36 216.378 1004.52 250.236 1010.04 279.918C1013.57 298.962 1018.23 319.014 1028.39 336.69C1039.39 355.806 1056.19 369.72 1074.53 374.85C1092.83 379.98 1115.04 377.028 1135.47 366.75C1153.06 357.912 1167.76 345.276 1184.41 329.022C1205.84 308.142 1221.87 290.034 1234.91 272.052C1248.23 253.638 1256.35 237.816 1260.44 222.264C1265.59 202.788 1263.97 183.636 1255.93 168.318ZM1094.52 174.474C1134.01 160.902 1190.13 147.078 1221.33 183.636C1228.34 191.826 1231.85 200.88 1231.85 210.636C1231.85 215.37 1231.03 220.284 1229.38 225.342C1224.54 240.192 1214.76 254.16 1205.84 265.86C1195.14 279.846 1182.97 293.544 1168.61 307.728C1158.07 318.15 1146.41 328.77 1132.63 335.916C1121.8 341.55 1110.2 344.484 1099.35 344.484C1094.9 344.484 1090.56 343.998 1086.47 342.99C1072.13 339.48 1059.01 329.418 1050.51 315.378C1042.46 302.004 1039.07 286.56 1036.8 273.186C1036.53 271.692 1036.3 270.18 1036.07 268.668C1033.48 251.298 1031.6 225.918 1045.25 206.244C1054.56 192.834 1070.21 182.736 1094.52 174.474ZM1164.1 162.018C1140.6 162.018 1115.64 169.128 1095.19 176.166C1071.28 184.284 1055.92 194.148 1046.86 207.216C1033.56 226.404 1035.42 251.334 1037.97 268.416C1038.2 269.928 1038.43 271.422 1038.68 272.916C1040.93 286.11 1044.29 301.374 1052.18 314.478C1060.44 328.122 1073.11 337.878 1086.95 341.244C1100.54 344.574 1116.86 342.072 1131.69 334.35C1145.24 327.312 1156.78 316.8 1167.23 306.486C1181.53 292.374 1193.64 278.73 1204.28 264.798C1213.11 253.224 1222.79 239.418 1227.55 224.82C1232.41 209.916 1229.82 196.434 1219.83 184.752C1212.61 176.292 1203.99 170.604 1194.51 167.04C1185.04 163.476 1174.71 162.018 1164.1 162.018ZM1103.12 201.528C1128.19 191.07 1172.7 184.194 1187.62 199.026C1197.72 208.332 1201.84 215.37 1196.45 228.024C1191.84 238.824 1182.74 249.642 1175.44 258.336L1175.17 258.66C1167.96 267.246 1160.08 276.408 1151.42 285.192C1144.86 291.834 1137.58 298.674 1128.86 303.498C1121.38 307.692 1113.08 309.924 1105.31 309.924C1103.16 309.924 1101.04 309.744 1098.99 309.402C1089.04 307.692 1080.06 301.806 1074.34 293.202C1068.56 284.526 1066.54 274.194 1065.45 266.148C1065.31 265.194 1065.2 264.222 1065.08 263.232C1063.2 246.33 1065.64 233.262 1072.51 223.308C1080.35 211.932 1093.73 205.434 1103.12 201.528ZM1157.49 192.348C1139.81 192.348 1118.67 197.01 1103.9 203.166C1089.33 209.232 1079.88 215.946 1074.12 224.28C1067.5 233.892 1065.16 246.564 1067 263.052C1067.1 264.006 1067.23 264.978 1067.35 265.932C1068.42 273.78 1070.38 283.878 1075.97 292.248C1081.4 300.42 1089.93 306.018 1099.33 307.638C1108.3 309.168 1118.71 307.098 1127.88 301.95C1136.39 297.234 1143.55 290.52 1150.02 283.968C1158.62 275.238 1166.48 266.112 1173.66 257.544L1173.93 257.22C1181.16 248.616 1190.15 237.906 1194.66 227.358C1199.19 216.738 1197.24 210.42 1186.25 200.304L1186.23 200.286C1180.57 194.634 1169.88 192.348 1157.49 192.348ZM1148.1 215.838C1158.11 215.064 1163.87 216.522 1165.69 220.266C1168.91 226.812 1158.64 238.167 1147.23 248.926L1146.12 249.965C1145.94 250.138 1145.75 250.31 1145.57 250.483L1144.45 251.514C1141.79 253.98 1139.35 256.788 1137 259.506C1133.45 263.592 1129.79 267.804 1125.18 271.044C1120.95 274.014 1115.42 275.85 1110.18 275.85C1105.59 275.85 1101.24 274.446 1098.22 271.116C1095.38 268.002 1094 263.502 1094.09 257.724C1094.25 250.524 1096.76 244.494 1100.29 239.58C1103.81 234.666 1108.32 230.868 1112.43 228.078C1122.28 221.382 1135.62 216.81 1148.1 215.838ZM1163.94 221.022C1162.54 218.124 1157.13 216.954 1148.26 217.638C1112.72 220.392 1096.32 242.766 1096.01 257.76C1095.92 263.07 1097.15 267.174 1099.68 269.946C1105.44 276.264 1116.81 274.68 1124.03 269.604C1128.44 266.508 1132.03 262.368 1135.51 258.372C1137.89 255.618 1140.36 252.774 1143.11 250.236C1143.71 249.681 1144.41 249.043 1145.16 248.335L1145.95 247.605C1153.69 240.336 1166.91 227.065 1163.94 221.022ZM1320.69 134.118C1334.67 134.388 1348.72 136.224 1362.32 138.024C1370.48 139.086 1378.92 140.202 1387.24 140.94C1408.34 142.848 1425.48 141.894 1440 137.898V139.77C1425.35 143.712 1408.17 144.648 1387.07 142.74C1378.69 141.984 1370.23 140.868 1362.05 139.806C1348.51 138.024 1334.52 136.188 1320.65 135.918C1314.36 135.81 1307.29 136.26 1303.07 140.562C1297.77 145.908 1299.74 154.368 1300.84 157.752C1301.57 160.038 1302.53 162.306 1303.47 164.52C1305.02 168.174 1306.62 171.954 1307.27 175.95C1308.02 180.54 1307.48 185.202 1306.96 189.702C1306.71 191.844 1306.46 194.076 1306.35 196.254C1306.12 200.898 1306.64 209.376 1312.74 213.876C1318.2 217.872 1325.3 217.188 1332.84 216.45C1336.95 216.054 1341.22 215.622 1345.27 216.018C1355.12 216.972 1363.24 222.66 1371.09 228.15C1373.66 229.932 1376.31 231.804 1378.96 233.442C1396.74 244.44 1419.36 247.788 1440 243.27V245.124C1434.05 246.384 1427.96 247.014 1421.86 247.014C1406.36 247.014 1390.89 242.964 1377.91 234.936C1375.22 233.262 1372.53 231.408 1369.96 229.59L1368.47 228.554C1361.27 223.55 1353.79 218.66 1345.08 217.818C1341.22 217.44 1337.07 217.854 1333.04 218.232C1325.45 218.988 1317.62 219.744 1311.55 215.28C1304.77 210.294 1304.18 201.168 1304.43 196.164C1304.54 193.932 1304.81 191.682 1305.06 189.504C1305.56 185.112 1306.1 180.576 1305.37 176.22C1304.76 172.422 1303.2 168.75 1301.68 165.186C1300.74 162.936 1299.76 160.632 1299 158.274C1297.8 154.584 1295.69 145.386 1301.64 139.338C1306.41 134.532 1313.93 134.01 1320.69 134.118ZM1440 161.334V163.206C1417.86 169.002 1394.04 167.184 1372.7 165.546C1363.99 164.88 1351.85 164.88 1347.23 172.584C1343.75 178.398 1346.76 185.994 1351.37 190.188C1356.42 194.796 1363.55 197.064 1370.5 198.846C1394.76 205.038 1418.4 206.532 1440 203.364V205.182C1432.67 206.262 1425.14 206.784 1417.42 206.784C1402.16 206.784 1386.2 204.714 1370 200.574C1362.8 198.738 1355.4 196.38 1350.03 191.484C1344.79 186.696 1341.56 178.362 1345.56 171.702C1350.72 163.098 1363.6 163.044 1372.86 163.764C1394.21 165.402 1418.05 167.22 1440 161.334ZM1083.71 0C1082.8 19.098 1079.25 37.944 1073.11 56.304C1070.63 63.666 1068.44 71.946 1073.55 77.022C1077.62 81.054 1084.51 80.982 1090.04 80.478C1102.14 79.362 1114.21 76.662 1125.87 74.07C1130.8 72.972 1135.91 71.82 1140.96 70.812C1204.4 58.1768 1268.92 63.5919 1334.78 72.4121L1339.6 73.0633C1342.82 73.5013 1346.04 73.9464 1349.26 74.3972L1354.1 75.0772C1354.9 75.1912 1355.71 75.3055 1356.52 75.42C1382.11 79.056 1412.14 83.322 1440 78.84V80.676C1431.48 82.044 1422.74 82.584 1414 82.584C1394.05 82.584 1374.09 79.74 1356.23 77.202C1351.4 76.516 1346.58 75.8397 1341.76 75.1787L1336.95 74.523C1270.42 65.5292 1205.28 59.836 1141.36 72.576C1136.33 73.584 1131.24 74.718 1126.31 75.816C1114.58 78.426 1102.46 81.126 1090.23 82.26C1084.72 82.764 1076.85 82.908 1072.15 78.246C1066.33 72.468 1068.65 63.612 1071.28 55.764C1077.35 37.602 1080.86 18.9 1081.77 0H1083.71ZM1120.86 0C1121.28 10.44 1118.96 20.97 1114.08 30.348L1113.79 30.906C1112.87 32.652 1111.93 34.452 1111.87 36.288C1111.72 40.338 1115.9 43.56 1120.05 44.334C1124.41 45.162 1129.02 44.064 1133.45 43.002L1133.66 42.948C1179.67 31.95 1227.01 27.648 1274.42 30.186C1288.59 30.942 1302.95 32.328 1316.83 33.678C1335.28 35.46 1354.37 37.314 1373.2 37.674C1398.68 38.196 1420.78 35.802 1440 30.42V32.292C1420.72 37.62 1398.6 39.996 1373.16 39.474C1354.25 39.096 1335.13 37.26 1316.64 35.46C1302.78 34.128 1288.44 32.724 1274.3 31.968C1227.11 29.466 1179.96 33.732 1134.14 44.694L1133.93 44.748C1130.46 45.576 1126.89 46.422 1123.3 46.422C1122.09 46.422 1120.88 46.332 1119.67 46.098C1114.75 45.18 1109.76 41.238 1109.95 36.216C1110.03 34.002 1111.07 32.022 1112.06 30.114L1112.37 29.556C1117.11 20.412 1119.38 10.152 1118.96 0H1120.86Z" fill="#575445" fill-opacity="0.09"/>
</g>
<defs>
<clipPath id="clip0_1_120">
<rect width="1440" height="900" fill="white"/>
</clipPath>
</defs>
</svg>
