<svg width="16" height="17" viewBox="0 0 16 17" fill="none" xmlns="http://www.w3.org/2000/svg">
<path d="M13.587 11.7863C13.9434 11.7863 14.2656 11.5078 14.2656 11.0971C14.2656 10.6933 13.9434 10.4149 13.587 10.4149H5.79949C5.51157 10.4149 5.32648 10.206 5.28535 9.89273L5.17566 9.18264H13.6624C14.7455 9.18264 15.3213 8.52127 15.479 7.42132L15.9726 4.05882C15.9863 3.96135 16 3.843 16 3.75946C16 3.30695 15.7052 2.99368 15.1637 2.99368H4.30506L4.20908 2.31839C4.11997 1.67095 3.84576 1.34375 3.03685 1.34375H0.733505C0.335904 1.34375 0 1.68487 0 2.09561C0 2.49939 0.335904 2.84052 0.733505 2.84052H2.76949L3.80463 10.0389C3.9623 11.125 4.53813 11.7863 5.62125 11.7863H13.587ZM6.19023 15.3438C6.88261 15.3438 7.43788 14.7799 7.43788 14.0767C7.43788 13.3736 6.88261 12.8097 6.19023 12.8097C5.49786 12.8097 4.94259 13.3736 4.94259 14.0767C4.94259 14.7799 5.49786 15.3438 6.19023 15.3438ZM12.4764 15.3438C13.1688 15.3438 13.7241 14.7799 13.7241 14.0767C13.7241 13.3736 13.1688 12.8097 12.4764 12.8097C11.7841 12.8097 11.2219 13.3736 11.2219 14.0767C11.2219 14.7799 11.7841 15.3438 12.4764 15.3438Z" fill="white"/>
</svg>
