<svg width="16" height="17" viewBox="0 0 16 17" fill="none" xmlns="http://www.w3.org/2000/svg">
<path d="M13.822 14.6769C15.2461 14.6769 16 13.923 16 12.4997V5.66922C16 4.24593 15.2461 3.48554 13.822 3.48554H12.1788C11.6826 3.48554 11.5087 3.40105 11.1865 3.0696L10.6774 2.53668C10.3359 2.17923 9.98792 2.01025 9.33709 2.01025H6.63713C5.98631 2.01025 5.63834 2.17923 5.29682 2.53668L4.78776 3.0696C4.46557 3.40105 4.29158 3.48554 3.78896 3.48554H2.18445C0.760371 3.48554 0 4.24593 0 5.66922V12.4997C0 13.923 0.760371 14.6769 2.18445 14.6769H13.822ZM8.00322 12.5647C6.08941 12.5647 4.54934 11.0179 4.54934 9.07473C4.54934 7.13801 6.08941 5.58474 8.00322 5.58474C9.91704 5.58474 11.4507 7.13801 11.4507 9.07473C11.4507 11.0179 9.91704 12.5647 8.00322 12.5647ZM12.7394 7.57345C12.2561 7.57345 11.8566 7.1835 11.8566 6.68958C11.8566 6.21515 12.2626 5.8057 12.7394 5.8057C13.2098 5.8057 13.6158 6.21515 13.6158 6.68958C13.6158 7.17701 13.2163 7.56695 12.7394 7.57345ZM8.00322 11.2714C9.20822 11.2714 10.1748 10.2966 10.1748 9.07473C10.1748 7.85941 9.20822 6.87805 8.00322 6.87805C6.79823 6.87805 5.83166 7.85941 5.83166 9.07473C5.83166 10.2966 6.80467 11.2714 8.00322 11.2714Z" fill="white"/>
</svg>
